<mxfile host="app.diagrams.net" modified="2024-04-03T06:40:01.902Z" agent="Mozilla/5.0 (Windows NT 10.0; Win64; x64; rv:109.0) Gecko/20100101 Firefox/115.0" version="24.2.0" etag="sG-oJdN2CerVjuGd7-P5" type="github">
  <diagram name="Page-1" id="smyI7X2A5dVe8MiWKBYw">
    <mxGraphModel>
      <root>
        <mxCell id="0" />
        <mxCell id="1" parent="0" />
      </root>
    </mxGraphModel>
  </diagram>
</mxfile>
